<svg width="64" height="64" viewBox="0 0 64 64" xmlns="http://www.w3.org/2000/svg">
  <defs>
    <linearGradient id="foundryGrad" x1="0" y1="0" x2="64" y2="64" gradientUnits="userSpaceOnUse">
      <stop offset="0" stop-color="#9D8FFF"/>
      <stop offset="1" stop-color="#7C6CF0"/>
    </linearGradient>
  </defs>

  <!-- Background -->
  <rect width="64" height="64" rx="14.08" fill="#15131F"/>

  <!-- Outer hexagon -->
  <path d="M 55.28,45.44 L32.00,58.88 L8.72,45.44 L8.72,18.56 L32.00,5.12 L55.28,18.56 Z" stroke="url(#foundryGrad)" stroke-width="5.76" stroke-linejoin="round" fill="none"/>

  <!-- Spoke lines -->
  <path d="M32.00,32.00 L55.28,45.44 M32.00,32.00 L32.00,58.88 M32.00,32.00 L8.72,45.44 M32.00,32.00 L8.72,18.56 M32.00,32.00 L32.00,5.12 M32.00,32.00 L55.28,18.56" stroke="url(#foundryGrad)" stroke-width="2.88" stroke-linecap="round" opacity="0.45"/>

  <!-- Center dot -->
  <circle cx="32.00" cy="32.00" r="5.63" fill="url(#foundryGrad)"/>
  <circle cx="55.28" cy="45.44" r="3.52" stroke="url(#foundryGrad)" stroke-width="3.20" fill="#15131F"/>
  <circle cx="32.00" cy="58.88" r="3.52" stroke="url(#foundryGrad)" stroke-width="3.20" fill="#15131F"/>
  <circle cx="8.72" cy="45.44" r="3.52" stroke="url(#foundryGrad)" stroke-width="3.20" fill="#15131F"/>
  <circle cx="8.72" cy="18.56" r="3.52" stroke="url(#foundryGrad)" stroke-width="3.20" fill="#15131F"/>
  <circle cx="32.00" cy="5.12" r="3.52" stroke="url(#foundryGrad)" stroke-width="3.20" fill="#15131F"/>
  <circle cx="55.28" cy="18.56" r="3.52" stroke="url(#foundryGrad)" stroke-width="3.20" fill="#15131F"/>
  <circle cx="45.04" cy="39.53" r="2.82" fill="#9D8FFF" opacity="0.85"/>
  <circle cx="18.96" cy="39.53" r="2.82" fill="#9D8FFF" opacity="0.85"/>
  <circle cx="32.00" cy="16.95" r="2.82" fill="#9D8FFF" opacity="0.85"/>
</svg>
